<svg xmlns="http://www.w3.org/2000/svg" viewBox="0 0 11.39 19.991"><defs><style>.a{fill:#7e7e7e;}</style></defs><g transform="translate(0 0)"><path class="a" d="M2.809,1.689H1.334c-.494,0-.9.018-.9-.334s.405-.336.9-.336h1.3A.929.929,0,0,0,3.55.12l.089-3.55a.937.937,0,0,0-.693-.992L1.338-4.628s-.071-.01-1.311-.01A5.675,5.675,0,0,0-4.334-2.916,6.377,6.377,0,0,0-5.484-.263a10.063,10.063,0,0,0-.158,1.289c0,.224-.4.405-.9.405h-.284a.9.9,0,0,0-.9.9V6.583a.9.9,0,0,0,.9.9h.284a.9.9,0,0,1,.9.9v6.075a.9.9,0,0,0,.9.9H-.331a.9.9,0,0,0,.9-.9V8.379a.9.9,0,0,1,.9-.9H2.537a.953.953,0,0,0,.94-.9l.19-4a.852.852,0,0,0-.856-.9M1.632,5.277a.318.318,0,0,1-.314.3H-1.035a.3.3,0,0,0-.3.3V13.15a.3.3,0,0,1-.3.3H-3.439a.3.3,0,0,1-.3-.3V5.876a.3.3,0,0,0-.3-.3h-1.48a.3.3,0,0,1-.3-.3V3.636a.3.3,0,0,1,.3-.3h1.48a.3.3,0,0,0,.3-.3V.92A4.132,4.132,0,0,1-3.433-.865c.132-.248.683-1.869,3.457-1.869.734,0,1.271.044,1.271.044l.36.029c.034,0,.059.141.055.306L1.672-.873c0,.165-.035.3-.072.3H.145A1.422,1.422,0,0,0-1.3.669c-.019.164-.035.432-.035.6V3.036a.3.3,0,0,0,.3.3h2.46a.285.285,0,0,1,.285.3Z" transform="translate(7.723 4.638)"/></g></svg>