<svg xmlns="http://www.w3.org/2000/svg" viewBox="0 0 46.686 26.363"><defs><style>.a{fill:#666;}</style></defs><g transform="translate(0)"><path class="a" d="M2.256,10.519a.2.2,0,0,0-.194.19L1.6,14.9,2.06,19a.2.2,0,0,0,.194.188A.2.2,0,0,0,2.448,19l.522-4.1-.522-4.194a.2.2,0,0,0-.192-.19ZM.529,12.125a.191.191,0,0,0-.186.183L0,14.9l.343,2.548a.192.192,0,0,0,.186.183.2.2,0,0,0,.186-.183l.4-2.548-.4-2.595a.2.2,0,0,0-.188-.183ZM4.088,9.7a.24.24,0,0,0-.234.23L3.42,14.9l.435,4.791a.24.24,0,0,0,.234.23.246.246,0,0,0,.235-.228L4.817,14.9,4.324,9.928a.243.243,0,0,0-.235-.23Zm1.849-.175a.279.279,0,0,0-.273.269L5.254,14.9l.412,4.945a.274.274,0,0,0,.548,0L6.681,14.9,6.214,9.79a.283.283,0,0,0-.277-.267Zm2.177.636a.314.314,0,0,0-.627,0L7.1,14.9l.388,4.986a.314.314,0,0,0,.627,0L8.557,14.9l-.443-4.743Zm1.569-3.32a.361.361,0,0,0-.354.352l-.365,7.715.365,4.985a.362.362,0,0,0,.354.35.366.366,0,0,0,.352-.352v0l.412-4.985-.412-7.715a.364.364,0,0,0-.352-.352Zm1.864-1.778a.4.4,0,0,0-.394.39l-.341,9.481.341,4.954a.393.393,0,0,0,.785,0v0l.388-4.954-.388-9.479a.4.4,0,0,0-.392-.392Zm1.94-.855a.436.436,0,0,0-.433.431l-.32,10.268.32,4.9a.432.432,0,0,0,.864,0v0l.358-4.9L13.918,4.638a.439.439,0,0,0-.431-.431Zm2.4.085a.473.473,0,0,0-.945,0l-.3,10.615.3,4.873a.473.473,0,0,0,.945,0l.331-4.87L15.882,4.292Zm0,15.486v0ZM17.349,4.052a.514.514,0,0,0-.512.51l-.271,10.344.271,4.826a.513.513,0,0,0,.512.508.519.519,0,0,0,.514-.512v.006l.3-4.828-.3-10.344a.52.52,0,0,0-.514-.51Zm1.955.339a.557.557,0,0,0-.554.552L18.5,14.908,18.75,19.7a.553.553,0,0,0,1.105,0v0l.279-4.794-.279-9.967a.555.555,0,0,0-.552-.55Zm2.3-1.832a.592.592,0,0,0-.326-.1.582.582,0,0,0-.32.1.6.6,0,0,0-.271.493l0,.113-.22,11.745c0,.008.224,4.766.224,4.766v.019a.6.6,0,0,0,.593.571.587.587,0,0,0,.414-.175.608.608,0,0,0,.179-.416l.024-.473.224-4.29-.25-11.86a.612.612,0,0,0-.267-.49Zm.266,17.115v0Zm1.691-18.24a.618.618,0,0,0-.719.053.638.638,0,0,0-.234.486l0,.066L22.343,14.91l.132,2.378L22.6,19.6a.632.632,0,0,0,1.264-.006V19.6l.281-4.695L23.866,1.973a.642.642,0,0,0-.311-.539Zm17.39,7.353a5.716,5.716,0,0,0-2.222.446A10.13,10.13,0,0,0,28.634,0a10.27,10.27,0,0,0-3.676.685c-.433.168-.548.341-.552.676V19.588a.673.673,0,0,0,.62.657c.015,0,15.918,0,15.918,0a5.728,5.728,0,1,0,0-11.457ZM4.585,23.7c-.672-.158-.855-.245-.855-.51,0-.186.151-.382.606-.382a1.289,1.289,0,0,1,.964.437l.614-.593a2.036,2.036,0,0,0-1.548-.668,1.347,1.347,0,0,0-1.516,1.245c0,.836.546,1.087,1.329,1.265.8.183.945.305.945.578,0,.32-.237.461-.74.461A1.38,1.38,0,0,1,3.3,25.045l-.612.546a1.967,1.967,0,0,0,1.65.77c1.158,0,1.668-.544,1.668-1.352,0-.923-.746-1.151-1.42-1.309Zm3.906-1.717c-1.158,0-1.842.9-1.842,2.19s.685,2.19,1.842,2.19,1.844-.9,1.844-2.19S9.651,21.983,8.491,21.983Zm0,3.538c-.685,0-.97-.589-.97-1.348s.284-1.346.97-1.346.972.589.972,1.346S9.178,25.521,8.491,25.521Zm5.273-1.087c0,.678-.333,1.1-.872,1.1s-.868-.431-.868-1.111V22.049h-.849v2.384a1.692,1.692,0,0,0,1.717,1.928c1.079,0,1.721-.71,1.721-1.94V22.049h-.849v2.386Zm4.512-.588c0,.235.011.77.011.926-.053-.109-.192-.32-.3-.48l-1.506-2.243h-.813V26.3h.838V24.429c0-.237-.013-.77-.013-.926.055.109.194.32.3.48L18.353,26.3h.757V22.051h-.836l0,1.8Zm3.256-1.8H20.206V26.3h1.265a2.019,2.019,0,0,0,2.173-2.124A1.892,1.892,0,0,0,21.531,22.051Zm-.06,3.42h-.418V22.876H21.5c.9,0,1.267.429,1.267,1.3a1.175,1.175,0,0,1-1.3,1.3Zm4.8-2.644a.814.814,0,0,1,.778.459l.785-.362a1.6,1.6,0,0,0-1.552-.942,1.964,1.964,0,0,0-1.887,2.19c0,1.341.746,2.19,1.857,2.19a1.618,1.618,0,0,0,1.57-.96l-.717-.424a.889.889,0,0,1-.83.542c-.636,0-1.007-.586-1.007-1.348C25.267,23.384,25.633,22.827,26.269,22.827Zm3.15-.776H28.57V26.3h2.553v-.838h-1.7V22.051Zm3.939-.068c-1.158,0-1.844.9-1.844,2.19s.687,2.19,1.844,2.19,1.845-.9,1.845-2.19S34.517,21.983,33.359,21.983Zm0,3.538c-.685,0-.97-.589-.97-1.348s.286-1.346.97-1.346.97.589.97,1.346-.284,1.348-.97,1.348Zm5.271-1.087c0,.678-.331,1.1-.872,1.1s-.868-.431-.868-1.111V22.049H36.04v2.384a1.692,1.692,0,0,0,1.717,1.928c1.079,0,1.723-.71,1.723-1.94V22.049H38.63v2.386Zm3.239-2.384H40.539V26.3H41.8a2.019,2.019,0,0,0,2.173-2.124,1.888,1.888,0,0,0-2.109-2.122Zm-.062,3.42H41.39V22.876h.448c.9,0,1.265.429,1.265,1.3A1.171,1.171,0,0,1,41.806,25.471Z"/></g></svg>