<svg xmlns="http://www.w3.org/2000/svg" viewBox="0 0 19.883 19.854"><defs><style>.a{fill:#7e7e7e;}</style></defs><g transform="translate(0 0)"><g transform="translate(0 0)"><path class="a" d="M0,3.911q0-4.75,0-9.5c.059-.273.109-.546.173-.816a5.1,5.1,0,0,1,3.5-3.971c.479-.158.982-.239,1.476-.359h9.5c.112.025.222.055.337.075,2.873.521,4.528,2.21,4.739,5.128A68,68,0,0,1,19.712,4a5.2,5.2,0,0,1-4.35,4.895,6.719,6.719,0,0,1-1.319.173c-3.013,0-6.032.151-9.039-.078A5.237,5.237,0,0,1,.231,4.972C.139,4.623.075,4.264,0,3.911M9.93-8.823c-1.353,0-2.7-.012-4.055,0A3.663,3.663,0,0,0,1.912-4.865Q1.831-.83,1.912,3.2A3.653,3.653,0,0,0,5.8,7.137q4.108.088,8.21,0a3.629,3.629,0,0,0,3.861-3.862q.1-4.125,0-8.259a3.621,3.621,0,0,0-3.883-3.833c-1.352-.018-2.7,0-4.053-.005" transform="translate(0.001 10.737)"/></g><g transform="translate(4.726 4.728)"><path class="a" d="M0,1.369A5.209,5.209,0,0,1,5.215-3.759a5.212,5.212,0,0,1,5.116,5.177A5.215,5.215,0,0,1,5.14,6.574,5.213,5.213,0,0,1,0,1.369m1.939.019a3.227,3.227,0,1,0,6.453.033,3.227,3.227,0,0,0-6.453-.033" transform="translate(0 3.759)"/></g><g transform="translate(13.922 3.351)"><path class="a" d="M.332.672A1.257,1.257,0,0,1-.912-.584,1.275,1.275,0,0,1,.341-1.845,1.3,1.3,0,0,1,1.6-.58,1.285,1.285,0,0,1,.332.672" transform="translate(0.912 1.845)"/></g></g></svg>