<svg xmlns="http://www.w3.org/2000/svg" xmlns:xlink="http://www.w3.org/1999/xlink" viewBox="0 0 53.126 59.78"><defs><style>.a{fill:#fff;}.b{filter:url(#k);}.c{filter:url(#i);}.d{filter:url(#g);}.e{filter:url(#e);}.f{filter:url(#c);}.g{filter:url(#a);}</style><filter id="a" x="17.427" y="19.741" width="21.391" height="21.391" filterUnits="userSpaceOnUse"><feOffset dy="3" input="SourceAlpha"/><feGaussianBlur stdDeviation="3" result="b"/><feFlood flood-opacity="0.161"/><feComposite operator="in" in2="b"/><feComposite in="SourceGraphic"/></filter><filter id="c" x="12.409" y="28.692" width="28.239" height="21.526" filterUnits="userSpaceOnUse"><feOffset dy="3" input="SourceAlpha"/><feGaussianBlur stdDeviation="3" result="d"/><feFlood flood-opacity="0.161"/><feComposite operator="in" in2="d"/><feComposite in="SourceGraphic"/></filter><filter id="e" x="12.409" y="25.98" width="28.239" height="21.526" filterUnits="userSpaceOnUse"><feOffset dy="3" input="SourceAlpha"/><feGaussianBlur stdDeviation="3" result="f"/><feFlood flood-opacity="0.161"/><feComposite operator="in" in2="f"/><feComposite in="SourceGraphic"/></filter><filter id="g" x="12.409" y="23.267" width="28.239" height="21.526" filterUnits="userSpaceOnUse"><feOffset dy="3" input="SourceAlpha"/><feGaussianBlur stdDeviation="3" result="h"/><feFlood flood-opacity="0.161"/><feComposite operator="in" in2="h"/><feComposite in="SourceGraphic"/></filter><filter id="i" x="6.51" y="15.198" width="40.106" height="40.106" filterUnits="userSpaceOnUse"><feOffset dy="3" input="SourceAlpha"/><feGaussianBlur stdDeviation="3" result="j"/><feFlood flood-opacity="0.161"/><feComposite operator="in" in2="j"/><feComposite in="SourceGraphic"/></filter><filter id="k" x="0" y="0" width="53.126" height="59.78" filterUnits="userSpaceOnUse"><feOffset dy="3" input="SourceAlpha"/><feGaussianBlur stdDeviation="3" result="l"/><feFlood flood-opacity="0.161"/><feComposite operator="in" in2="l"/><feComposite in="SourceGraphic"/></filter></defs><g transform="translate(9 6.012)"><g class="g" transform="matrix(1, 0, 0, 1, -9, -6.01)"><path class="a" d="M27.4,32.491a1.7,1.7,0,1,0-1.7-1.7A1.722,1.722,0,0,0,27.4,32.491Z" transform="translate(0.73 -3.36)"/></g><g class="f" transform="matrix(1, 0, 0, 1, -9, -6.01)"><path class="a" d="M21.623,42.3,18.3,44.538v1.288l3.391-2.238,3.526,2.238,3.323-2.17V42.436l-3.323,2.17Z" transform="translate(3.11 -7.61)"/></g><g class="e" transform="matrix(1, 0, 0, 1, -9, -6.01)"><path class="a" d="M21.623,38.3,18.3,40.538v1.288l3.391-2.238,3.526,2.238,3.323-2.17V38.368l-3.323,2.17Z" transform="translate(3.11 -6.32)"/></g><g class="d" transform="matrix(1, 0, 0, 1, -9, -6.01)"><path class="a" d="M21.623,34.3,18.3,36.538v1.221l3.391-2.238,3.526,2.306,3.323-2.238V34.368l-3.323,2.17Z" transform="translate(3.11 -5.03)"/></g><g class="c" transform="matrix(1, 0, 0, 1, -9, -6.01)"><path class="a" d="M20.653,22.4A11.053,11.053,0,1,0,31.706,33.453,11.055,11.055,0,0,0,20.653,22.4ZM30.689,33.521a10.07,10.07,0,1,1-10.036-10.1A10.129,10.129,0,0,1,30.689,33.521Z" transform="translate(5.91 -1.2)"/></g><g class="b" transform="matrix(1, 0, 0, 1, -9, -6.01)"><path class="a" d="M27.667,10.778h-9.29L22.92,5.624a1,1,0,0,0,.949-.339.971.971,0,0,0,.2-.746,1.033,1.033,0,0,0-.407-.678.991.991,0,0,0-1.424.2.929.929,0,0,0-.136,1.017l-4.95,5.56L11.392,1.488A1.044,1.044,0,0,0,11.257.4,1.086,1.086,0,0,0,9.765.2a.937.937,0,0,0-.407.746,1.806,1.806,0,0,0,.2.814.9.9,0,0,0,1.017.339l5.56,8.68H7.459C3.323,10.778,0,14.643,0,19.39V33.155c0,4.747,3.323,8.612,7.459,8.612H27.667c4.136,0,7.459-3.865,7.459-8.612V19.39C35.058,14.643,31.735,10.778,27.667,10.778Zm6.51,8.612V33.155c0,4.2-2.916,7.595-6.51,7.595H7.459c-3.594,0-6.51-3.391-6.51-7.595V19.39c0-4.2,2.916-7.595,6.51-7.595H27.667C31.261,11.795,34.176,15.185,34.176,19.39Z" transform="translate(9 6.01)"/></g></g></svg>