<svg xmlns="http://www.w3.org/2000/svg" xmlns:xlink="http://www.w3.org/1999/xlink" viewBox="0 0 121.807 87.128"><defs><style>.a{fill:#fff;}.b{filter:url(#ag);}.c{filter:url(#ae);}.d{filter:url(#ac);}.e{filter:url(#aa);}.f{filter:url(#y);}.g{filter:url(#w);}.h{filter:url(#u);}.i{filter:url(#s);}.j{filter:url(#q);}.k{filter:url(#o);}.l{filter:url(#m);}.m{filter:url(#k);}.n{filter:url(#i);}.o{filter:url(#g);}.p{filter:url(#e);}.q{filter:url(#c);}.r{filter:url(#a);}</style><filter id="a" x="0" y="51.179" width="27.374" height="29.368" filterUnits="userSpaceOnUse"><feOffset dy="3" input="SourceAlpha"/><feGaussianBlur stdDeviation="3" result="b"/><feFlood flood-opacity="0.161"/><feComposite operator="in" in2="b"/><feComposite in="SourceGraphic"/></filter><filter id="c" x="16.254" y="51.278" width="19.795" height="29.069" filterUnits="userSpaceOnUse"><feOffset dy="3" input="SourceAlpha"/><feGaussianBlur stdDeviation="3" result="d"/><feFlood flood-opacity="0.161"/><feComposite operator="in" in2="d"/><feComposite in="SourceGraphic"/></filter><filter id="e" x="23.234" y="51.179" width="27.673" height="29.368" filterUnits="userSpaceOnUse"><feOffset dy="3" input="SourceAlpha"/><feGaussianBlur stdDeviation="3" result="f"/><feFlood flood-opacity="0.161"/><feComposite operator="in" in2="f"/><feComposite in="SourceGraphic"/></filter><filter id="g" x="38.289" y="51.167" width="29.374" height="29.383" filterUnits="userSpaceOnUse"><feOffset dy="3" input="SourceAlpha"/><feGaussianBlur stdDeviation="3" result="h"/><feFlood flood-opacity="0.161"/><feComposite operator="in" in2="h"/><feComposite in="SourceGraphic"/></filter><filter id="i" x="38.192" y="64.84" width="28.869" height="22.288" filterUnits="userSpaceOnUse"><feOffset dy="3" input="SourceAlpha"/><feGaussianBlur stdDeviation="3" result="j"/><feFlood flood-opacity="0.161"/><feComposite operator="in" in2="j"/><feComposite in="SourceGraphic"/></filter><filter id="k" x="54.047" y="51.677" width="27.473" height="28.67" filterUnits="userSpaceOnUse"><feOffset dy="3" input="SourceAlpha"/><feGaussianBlur stdDeviation="3" result="l"/><feFlood flood-opacity="0.161"/><feComposite operator="in" in2="l"/><feComposite in="SourceGraphic"/></filter><filter id="m" x="66.213" y="54.669" width="25.878" height="26.077" filterUnits="userSpaceOnUse"><feOffset dy="3" input="SourceAlpha"/><feGaussianBlur stdDeviation="3" result="n"/><feFlood flood-opacity="0.161"/><feComposite operator="in" in2="n"/><feComposite in="SourceGraphic"/></filter><filter id="o" x="76.783" y="51.677" width="26.376" height="28.969" filterUnits="userSpaceOnUse"><feOffset dy="3" input="SourceAlpha"/><feGaussianBlur stdDeviation="3" result="p"/><feFlood flood-opacity="0.161"/><feComposite operator="in" in2="p"/><feComposite in="SourceGraphic"/></filter><filter id="q" x="88.151" y="54.868" width="23.385" height="25.479" filterUnits="userSpaceOnUse"><feOffset dy="3" input="SourceAlpha"/><feGaussianBlur stdDeviation="3" result="r"/><feFlood flood-opacity="0.161"/><feComposite operator="in" in2="r"/><feComposite in="SourceGraphic"/></filter><filter id="s" x="89.547" y="51.677" width="20.293" height="20.294" filterUnits="userSpaceOnUse"><feOffset dy="3" input="SourceAlpha"/><feGaussianBlur stdDeviation="3" result="t"/><feFlood flood-opacity="0.161"/><feComposite operator="in" in2="t"/><feComposite in="SourceGraphic"/></filter><filter id="u" x="95.929" y="54.669" width="25.878" height="25.977" filterUnits="userSpaceOnUse"><feOffset dy="3" input="SourceAlpha"/><feGaussianBlur stdDeviation="3" result="v"/><feFlood flood-opacity="0.161"/><feComposite operator="in" in2="v"/><feComposite in="SourceGraphic"/></filter><filter id="w" x="51.427" y="19.741" width="21.391" height="21.391" filterUnits="userSpaceOnUse"><feOffset dy="3" input="SourceAlpha"/><feGaussianBlur stdDeviation="3" result="x"/><feFlood flood-opacity="0.161"/><feComposite operator="in" in2="x"/><feComposite in="SourceGraphic"/></filter><filter id="y" x="46.409" y="28.692" width="28.239" height="21.526" filterUnits="userSpaceOnUse"><feOffset dy="3" input="SourceAlpha"/><feGaussianBlur stdDeviation="3" result="z"/><feFlood flood-opacity="0.161"/><feComposite operator="in" in2="z"/><feComposite in="SourceGraphic"/></filter><filter id="aa" x="46.409" y="25.98" width="28.239" height="21.526" filterUnits="userSpaceOnUse"><feOffset dy="3" input="SourceAlpha"/><feGaussianBlur stdDeviation="3" result="ab"/><feFlood flood-opacity="0.161"/><feComposite operator="in" in2="ab"/><feComposite in="SourceGraphic"/></filter><filter id="ac" x="46.409" y="23.267" width="28.239" height="21.526" filterUnits="userSpaceOnUse"><feOffset dy="3" input="SourceAlpha"/><feGaussianBlur stdDeviation="3" result="ad"/><feFlood flood-opacity="0.161"/><feComposite operator="in" in2="ad"/><feComposite in="SourceGraphic"/></filter><filter id="ae" x="40.51" y="15.198" width="40.106" height="40.106" filterUnits="userSpaceOnUse"><feOffset dy="3" input="SourceAlpha"/><feGaussianBlur stdDeviation="3" result="af"/><feFlood flood-opacity="0.161"/><feComposite operator="in" in2="af"/><feComposite in="SourceGraphic"/></filter><filter id="ag" x="34" y="0" width="53.126" height="59.78" filterUnits="userSpaceOnUse"><feOffset dy="3" input="SourceAlpha"/><feGaussianBlur stdDeviation="3" result="ah"/><feFlood flood-opacity="0.161"/><feComposite operator="in" in2="ah"/><feComposite in="SourceGraphic"/></filter></defs><g transform="translate(-64 -116.833)"><g transform="translate(73 174.012)"><g class="r" transform="matrix(1, 0, 0, 1, -9, -57.18)"><path class="a" d="M7.579,7.18,0,0V11.168H1.795V4.088l7.579,7.279V.1H7.579Z" transform="translate(9 57.18)"/></g><g class="q" transform="matrix(1, 0, 0, 1, -9, -57.18)"><rect class="a" width="1.795" height="11.069" transform="translate(25.25 57.28)"/></g><g class="p" transform="matrix(1, 0, 0, 1, -9, -57.18)"><path class="a" d="M28.984,1.7a3.621,3.621,0,0,1,2.792,1.2l1.2-1.3A5.336,5.336,0,0,0,28.984,0,5.681,5.681,0,0,0,23.3,5.684a5.619,5.619,0,0,0,5.684,5.684,4.973,4.973,0,0,0,3.889-1.6l-1.2-1.3a4,4,0,0,1-2.792,1.2,3.776,3.776,0,0,1-3.789-3.989A3.981,3.981,0,0,1,28.984,1.7Z" transform="translate(8.93 57.18)"/></g><g class="o" transform="matrix(1, 0, 0, 1, -9, -57.18)"><path class="a" d="M43.785,0A5.759,5.759,0,0,0,38.4,5.983,5.692,5.692,0,1,0,43.785,0Zm.5,9.573a3.751,3.751,0,0,1-3.989-3.69A3.907,3.907,0,0,1,43.885,1.7a3.751,3.751,0,0,1,3.989,3.69A3.793,3.793,0,0,1,44.283,9.573Z" transform="translate(8.89 57.18)"/></g><g class="n" transform="matrix(1, 0, 0, 1, -9, -57.18)"><path class="a" d="M41.79,13.7,38.3,15.994v1.795l3.49-2.294,3.889,2.493,3.49-2.294V13.9l-3.49,2.294Z" transform="translate(8.89 57.14)"/></g><g class="m" transform="matrix(1, 0, 0, 1, -9, -57.18)"><path class="a" d="M62.177,10.173v-1.5l-1-2.094-.4-.5.8-.4.8-.8.4-.8v-1.4l-.4-.9-.8-.8-1.1-.5H54.7l-.5.2v.7l.4.2h1v8.476h-.8l-.5.2v.7l.4.2h3.291l.5-.2v-.7l-.4-.2h-1.2V6.084h2.294l.9.9.8,1.6v2.094c0,.2,0,.3.1.4s.2.1.4.1h1.795l.5-.2v-.7l-.4-.2ZM56.892,5.087V1.7h3.49l.4.2.6.6.2.4v1.1l-.2.4-.6.6-.4.2h-3.49Z" transform="translate(8.85 57.18)"/></g><g class="l" transform="matrix(1, 0, 0, 1, -9, -57.18)"><path class="a" d="M73.281,9.583l-.2.4v.3l-.1.1-.2-.1-.2-.4V5.2l-.3-.6-.5-.6-1.1-.5H68.594L67.5,4l-.5.5-.3.6v.4l.3.7.6.3H68l.7-.3.3-.6V5.2l-.2-.5.2-.1h1.3l.6.4.2.2.2.4v.6l-.2.4-.1-.1H68.893l-1.4.6-.8.9-.3.6v1.1l.3.6.5.6,1.3.7h1.895l.8-.4.3-.3.1.2.6.3h1.1l.7-.3.3-.6v-.4l-.2-.5h-.8Zm-1.994-.8-.4.9-.4.4-.5.2h-1.3l-.4-.2-.4-.4-.2-.4v-.3l.2-.4.4-.4.9-.4h1.6l.5.2Z" transform="translate(8.81 57.17)"/></g><g class="k" transform="matrix(1, 0, 0, 1, -9, -57.18)"><path class="a" d="M84.08,10.173V1c0-.1-.1-.3-.2-.3-.1-.1-.2-.2-.3-.2h-1.7l-.5.2v.7l.4.2h1.1V4.489l-.6-.5-.8-.4H79.692l-.9.4-1.1,1-.7,1.3V8.577l.6,1.4,1,1.1.8.4h1.895l.8-.4.6-.6v.3l.2.5h1.994l.5-.2v-.7l-.4-.2Zm-1.3-1.895-.4.9-.9.9-.4.2h-1.1l-.4-.2-.9-.9-.3-.6V6.483l.3-.6.9-.9.4-.2h1.1l.4.2.9.9.4.9Z" transform="translate(8.78 57.18)"/></g><g class="j" transform="matrix(1, 0, 0, 1, -9, -57.18)"><path class="a" d="M91.591,10.182V4.2c0-.1-.1-.3-.2-.3-.1-.1-.2-.2-.3-.2H88.9l-.5.2v.7l.4.2h1.6v5.285H89l-.5.2v.7l.4.2h4.388l.5-.2v-.7l-.4-.2Z" transform="translate(8.75 57.17)"/></g><g class="i" transform="matrix(1, 0, 0, 1, -9, -57.18)"><path class="a" d="M90.7,2.794h.4l.7-.3.2-.6.1-.4-.3-.7L91.2.6,90.8.5l-.7.3-.3.6v.4l.3.7Z" transform="translate(8.75 57.18)"/></g><g class="h" transform="matrix(1, 0, 0, 1, -9, -57.18)"><path class="a" d="M103.579,5.295l-1-1.1-1.3-.7H99.491l-1.5.7-1.1,1-.7,1.3V8.286l.6,1.4,1,1.1,1.3.7h1.895l1.3-.6,1.1-1,.7-1.3V6.791Zm-.7,2.992-.3.7-.9.9-.9.4h-1.1l-.9-.4-.9-.9-.3-.6v-1.6l.3-.6.9-.9.9-.4h1.1l.9.4.9.9.3.6Z" transform="translate(8.73 57.17)"/></g></g><g transform="translate(107 122.845)"><g class="g" transform="matrix(1, 0, 0, 1, -43, -6.01)"><path class="a" d="M27.4,32.491a1.7,1.7,0,1,0-1.7-1.7A1.722,1.722,0,0,0,27.4,32.491Z" transform="translate(34.73 -3.36)"/></g><g class="f" transform="matrix(1, 0, 0, 1, -43, -6.01)"><path class="a" d="M21.623,42.3,18.3,44.538v1.288l3.391-2.238,3.526,2.238,3.323-2.17V42.436l-3.323,2.17Z" transform="translate(37.11 -7.61)"/></g><g class="e" transform="matrix(1, 0, 0, 1, -43, -6.01)"><path class="a" d="M21.623,38.3,18.3,40.538v1.288l3.391-2.238,3.526,2.238,3.323-2.17V38.368l-3.323,2.17Z" transform="translate(37.11 -6.32)"/></g><g class="d" transform="matrix(1, 0, 0, 1, -43, -6.01)"><path class="a" d="M21.623,34.3,18.3,36.538v1.221l3.391-2.238,3.526,2.306,3.323-2.238V34.368l-3.323,2.17Z" transform="translate(37.11 -5.03)"/></g><g class="c" transform="matrix(1, 0, 0, 1, -43, -6.01)"><path class="a" d="M20.653,22.4A11.053,11.053,0,1,0,31.706,33.453,11.055,11.055,0,0,0,20.653,22.4ZM30.689,33.521a10.07,10.07,0,1,1-10.036-10.1A10.129,10.129,0,0,1,30.689,33.521Z" transform="translate(39.91 -1.2)"/></g><g class="b" transform="matrix(1, 0, 0, 1, -43, -6.01)"><path class="a" d="M27.667,10.778h-9.29L22.92,5.624a1,1,0,0,0,.949-.339.971.971,0,0,0,.2-.746,1.033,1.033,0,0,0-.407-.678.991.991,0,0,0-1.424.2.929.929,0,0,0-.136,1.017l-4.95,5.56L11.392,1.488A1.044,1.044,0,0,0,11.257.4,1.086,1.086,0,0,0,9.765.2a.937.937,0,0,0-.407.746,1.806,1.806,0,0,0,.2.814.9.9,0,0,0,1.017.339l5.56,8.68H7.459C3.323,10.778,0,14.643,0,19.39V33.155c0,4.747,3.323,8.612,7.459,8.612H27.667c4.136,0,7.459-3.865,7.459-8.612V19.39C35.058,14.643,31.735,10.778,27.667,10.778Zm6.51,8.612V33.155c0,4.2-2.916,7.595-6.51,7.595H7.459c-3.594,0-6.51-3.391-6.51-7.595V19.39c0-4.2,2.916-7.595,6.51-7.595H27.667C31.261,11.795,34.176,15.185,34.176,19.39Z" transform="translate(43 6.01)"/></g></g></g></svg>