<svg xmlns="http://www.w3.org/2000/svg" viewBox="0 0 36.028 19.994"><defs><style>.a{fill:#8c8c8c;}</style></defs><path class="a" d="M0,16.405a1.137,1.137,0,0,0,.495,1.008,1.314,1.314,0,0,0,1.043.247,1.174,1.174,0,0,0,.725-.371,1.443,1.443,0,0,0,.212-.884V11.544a1.242,1.242,0,0,0-.354-.884,1.173,1.173,0,0,0-.884-.354,1.231,1.231,0,0,0-.866.354,1.173,1.173,0,0,0-.354.884v4.861Zm3.854,2.086a.823.823,0,0,0,.336.725,1.535,1.535,0,0,0,.884.247,1.554,1.554,0,0,0,.9-.247.823.823,0,0,0,.336-.725V7.142a1.231,1.231,0,0,0-.354-.866,1.173,1.173,0,0,0-.884-.354,1.231,1.231,0,0,0-.866.354,1.161,1.161,0,0,0-.354.866V18.491Zm3.854.53a.835.835,0,0,0,.354.725,1.554,1.554,0,0,0,.9.247,1.535,1.535,0,0,0,.884-.247.823.823,0,0,0,.336-.725V8.68A1.242,1.242,0,0,0,9.829,7.8a1.217,1.217,0,0,0-1.75,0,1.217,1.217,0,0,0-.371.884V19.022Zm3.854.053c0,.619.407.919,1.237.919s1.237-.3,1.237-.919V2.3q0-1.405-.849-1.591a1.227,1.227,0,0,0-1.1.318,1.579,1.579,0,0,0-.53,1.273V19.075Zm3.925.477V1.308c0-.583.177-.937.513-1.043A9.888,9.888,0,0,1,23,1.2,10.177,10.177,0,0,1,26.588,4.49a9.946,9.946,0,0,1,1.591,4.6,5.689,5.689,0,0,1,2.174-.442A5.674,5.674,0,0,1,36.028,14.3a5.445,5.445,0,0,1-1.662,4.013,5.434,5.434,0,0,1-4,1.662H15.787a.391.391,0,0,1-.23-.177.483.483,0,0,1-.071-.247Z" transform="translate(0 0)"/></svg>