<svg xmlns="http://www.w3.org/2000/svg" viewBox="0 0 65.109 14.507"><defs><style>.a{fill:#666;}</style></defs><path class="a" d="M20.309,2.3A2.765,2.765,0,0,0,18.432.427C16.9,0,10.411,0,10.411,0S3.925,0,2.3.427A2.765,2.765,0,0,0,.427,2.3,27.049,27.049,0,0,0,0,7.253a27.811,27.811,0,0,0,.427,5.035A2.765,2.765,0,0,0,2.3,14.165a78.653,78.653,0,0,0,8.107.341s6.485,0,8.107-.427A2.765,2.765,0,0,0,20.395,12.2a27.811,27.811,0,0,0,.427-5.035A22.028,22.028,0,0,0,20.309,2.3ZM8.277,10.411V4.181l5.376,3.157Z"/><g transform="translate(22.869 0.597)"><path class="a" d="M35.109,13.945a2.027,2.027,0,0,1-.853-1.28,8.587,8.587,0,0,1-.256-2.3V9a9.286,9.286,0,0,1,.256-2.389,2.127,2.127,0,0,1,.939-1.28,3.294,3.294,0,0,1,3.243,0,2.027,2.027,0,0,1,.853,1.28A8.844,8.844,0,0,1,39.547,9v1.365a8.165,8.165,0,0,1-.256,2.3,2.424,2.424,0,0,1-.853,1.28,3.138,3.138,0,0,1-1.707.427A3.268,3.268,0,0,1,35.109,13.945Zm2.3-1.451a5.073,5.073,0,0,0,.171-1.451V8.228a5.568,5.568,0,0,0-.171-1.451.546.546,0,0,0-.6-.427.642.642,0,0,0-.6.427,5.568,5.568,0,0,0-.171,1.451v2.816a5.073,5.073,0,0,0,.171,1.451.642.642,0,0,0,.6.427C37.157,13.007,37.328,12.836,37.413,12.495Z" transform="translate(-27.856 -1.316)"/><path class="a" d="M71.963,10.376V10.8a4.913,4.913,0,0,0,.085,1.28.664.664,0,0,0,.256.6c.085.171.256.171.512.171.341,0,.512-.085.6-.341a3.534,3.534,0,0,0,.171-1.195l1.792.085v.341a2.515,2.515,0,0,1-.683,1.877,2.709,2.709,0,0,1-1.963.6,2.428,2.428,0,0,1-2.133-.939,4.591,4.591,0,0,1-.6-2.816V8.925a5.4,5.4,0,0,1,.6-2.987A2.428,2.428,0,0,1,72.731,5a2.827,2.827,0,0,1,1.621.427,1.964,1.964,0,0,1,.768,1.195,7.514,7.514,0,0,1,.256,2.219v1.536Zm.256-3.84a1.233,1.233,0,0,0-.171.6c0,.256-.085.768-.085,1.365v.683H73.5V8.5a6.072,6.072,0,0,0-.085-1.365c0-.341-.085-.512-.256-.6a.721.721,0,0,0-.512-.171A.552.552,0,0,0,72.219,6.536Z" transform="translate(-33.136 -1.331)"/><path class="a" d="M29.1,9.648,26.8,1.2h2.048L29.7,5.04c.171.939.341,1.707.427,2.389h.085A12.876,12.876,0,0,1,30.64,5.04l.853-3.84h2.048L31.152,9.648v4.011H29.1V9.648Z" transform="translate(-26.8 -0.773)"/><path class="a" d="M47.447,5.1v9.131H45.825l-.171-1.109h-.085a1.918,1.918,0,0,1-1.877,1.28,1.591,1.591,0,0,1-1.365-.6,3.586,3.586,0,0,1-.427-1.877V5.1h2.048v6.741a1.836,1.836,0,0,0,.171.853.469.469,0,0,0,.427.256,1.213,1.213,0,0,0,.512-.171.852.852,0,0,0,.341-.427V5.1Z" transform="translate(-29.015 -1.345)"/><path class="a" d="M59.832,5.1v9.131H58.211l-.171-1.109h-.085a2.107,2.107,0,0,1-1.963,1.28,1.591,1.591,0,0,1-1.365-.6,3.586,3.586,0,0,1-.427-1.877V5.1h2.048v6.741a1.836,1.836,0,0,0,.171.853.469.469,0,0,0,.427.256,1.213,1.213,0,0,0,.512-.171.852.852,0,0,0,.341-.427V5.1Z" transform="translate(-30.819 -1.345)"/><path class="a" d="M53.944,2.821H51.9V13.659H49.848V2.821H47.8V1.2h6.144Z" transform="translate(-29.88 -0.773)"/><path class="a" d="M67.761,5.991a2.247,2.247,0,0,0-.6-1.28,1.622,1.622,0,0,0-1.109-.427,1.49,1.49,0,0,0-1.024.341,1.868,1.868,0,0,0-.768.853h0V.7H62.3V13.671h1.707l.171-.853h.085a2.944,2.944,0,0,0,.683.768,2.272,2.272,0,0,0,1.024.256,1.7,1.7,0,0,0,1.536-.939,6.461,6.461,0,0,0,.512-2.987V8.38A13.5,13.5,0,0,0,67.761,5.991ZM65.884,9.66A7.393,7.393,0,0,1,65.8,11.2a2.579,2.579,0,0,1-.256.768.738.738,0,0,1-.512.256.639.639,0,0,1-.427-.085.666.666,0,0,1-.341-.341V6.588a1.375,1.375,0,0,1,.341-.6.64.64,0,0,1,1.024,0,3.459,3.459,0,0,1,.256.853,8.8,8.8,0,0,1,.085,1.621V9.66Z" transform="translate(-32.007 -0.7)"/></g></svg>