<svg xmlns="http://www.w3.org/2000/svg" viewBox="0 0 86.186 12.885"><defs><style>.a{fill:#666;}</style></defs><path class="a" d="M88.268,3.4H87.159a.583.583,0,0,0-.6.6V8.264a2.85,2.85,0,0,1-.256,1.28,1.533,1.533,0,0,1-1.536.939A1.268,1.268,0,0,1,83.575,9.8,3.343,3.343,0,0,1,83.4,8.691V4a.583.583,0,0,0-.6-.6H81.7a.583.583,0,0,0-.6.6V8.776a5.259,5.259,0,0,0,.341,2.219,2.45,2.45,0,0,0,2.475,1.365,4.323,4.323,0,0,0,1.109-.171,3.2,3.2,0,0,0,1.024-.6,1.178,1.178,0,0,0,.256-.341c.085-.171.171-.171.171-.256v.6a.583.583,0,0,0,.6.6H88.1a.583.583,0,0,0,.6-.6V4A.465.465,0,0,0,88.268,3.4Z" transform="translate(-11.895 -0.499)"/><path class="a" d="M68.007,0H66.9a.583.583,0,0,0-.6.6v10.5a.583.583,0,0,0,.6.6h1.109a.583.583,0,0,0,.6-.6V.6A.583.583,0,0,0,68.007,0Z" transform="translate(-9.724 0)"/><g transform="translate(36.949 0)"><path class="a" d="M45.007,3.4H43.9a.583.583,0,0,0-.6.6v7.595a.583.583,0,0,0,.6.6h1.109a.583.583,0,0,0,.6-.6V4A.583.583,0,0,0,45.007,3.4Z" transform="translate(-43.3 -0.499)"/><path class="a" d="M43.385,1.451a.583.583,0,0,0,.6.6h1.109a.583.583,0,0,0,.6-.6V.6a.724.724,0,0,0-.683-.6H43.9a.583.583,0,0,0-.6.6v.853Z" transform="translate(-43.3)"/></g><path class="a" d="M77.609,10.88a4.747,4.747,0,0,1-6.485,0A5,5,0,0,1,70.1,7.723a5,5,0,0,1,1.024-3.157A3.986,3.986,0,0,1,74.367,3.2a3.749,3.749,0,0,1,3.243,1.365,5,5,0,0,1,1.024,3.157A4.066,4.066,0,0,1,77.609,10.88ZM75.9,9.685a3.17,3.17,0,0,0,.512-1.963A3.17,3.17,0,0,0,75.9,5.76a1.823,1.823,0,0,0-1.451-.683A1.707,1.707,0,0,0,73,5.76a3.17,3.17,0,0,0-.512,1.963A3.17,3.17,0,0,0,73,9.685a1.823,1.823,0,0,0,1.451.683A1.6,1.6,0,0,0,75.9,9.685Z" transform="translate(-10.281 -0.469)"/><path class="a" d="M98.88,0H97.771a.583.583,0,0,0-.6.6V4.181a3.275,3.275,0,0,0-.939-.939A2.5,2.5,0,0,0,94.869,2.9a3.2,3.2,0,0,0-2.645,1.28A5.252,5.252,0,0,0,91.2,7.595a4.454,4.454,0,0,0,1.024,3.072A3.283,3.283,0,0,0,94.7,11.861a2.922,2.922,0,0,0,1.536-.341,3.433,3.433,0,0,0,1.109-1.109v.683a.583.583,0,0,0,.6.6h1.024a.583.583,0,0,0,.6-.6V.6C99.392.256,99.221,0,98.88,0ZM96.747,9.216A1.707,1.707,0,0,1,95.3,9.9a1.55,1.55,0,0,1-1.365-.683A3.072,3.072,0,0,1,93.5,7.339a3.7,3.7,0,0,1,.427-1.792,1.581,1.581,0,0,1,1.451-.768,1.8,1.8,0,0,1,1.109.427,2.793,2.793,0,0,1,.768,2.219A3.155,3.155,0,0,1,96.747,9.216Z" transform="translate(-13.376 0)"/><path class="a" d="M54.695,11.251h0l-2.389-3.5,2.3-3.5h0A.313.313,0,0,0,54.695,4a.583.583,0,0,0-.6-.6h-1.28a.608.608,0,0,0-.512.256l-1.28,2.3-1.28-2.3h0a.516.516,0,0,0-.512-.256H47.868a.583.583,0,0,0-.6.6.313.313,0,0,0,.085.256h0l2.219,3.5-2.389,3.5h0a.313.313,0,0,0-.085.256.583.583,0,0,0,.6.6h1.28a.608.608,0,0,0,.512-.256h0l1.365-2.389,1.365,2.389a.516.516,0,0,0,.512.256H54.1a.583.583,0,0,0,.6-.6C54.78,11.421,54.695,11.336,54.695,11.251Z" transform="translate(-6.908 -0.499)"/><g transform="translate(48.128 2.816)"><path class="a" d="M63.909,9.444V9.273c0-.085,0-.085-.085-.171a.721.721,0,0,0-.512-.171H62.2a.478.478,0,0,0-.512.427,1.715,1.715,0,0,1-.341.683,1.474,1.474,0,0,1-1.109.427,1.392,1.392,0,0,1-1.451-1.024,3.4,3.4,0,0,1-.256-1.451,3.565,3.565,0,0,1,.256-1.536,1.47,1.47,0,0,1,1.536-1.109,1.174,1.174,0,0,1,1.109.512c.085.171.171.256.256.427h0c0,.085,0,.085.085.171a3.7,3.7,0,0,0,.427.085H63.4a.583.583,0,0,0,.6-.6V5.775h0a2.448,2.448,0,0,0-1.109-1.792,4.113,4.113,0,0,0-2.56-.683,3.664,3.664,0,0,0-2.9,1.195A5.1,5.1,0,0,0,56.4,7.908a5.326,5.326,0,0,0,.939,3.157,4.14,4.14,0,0,0,6.059-.256,5.213,5.213,0,0,0,.6-1.195c-.085,0-.085-.085-.085-.171Z" transform="translate(-56.4 -3.3)"/></g><g transform="translate(24.576 0)"><path class="a" d="M39.3,0H36.48a.608.608,0,0,0-.512.256c0,.085-.085.085-.085.171L34.347,8.192,32.725.427c0-.085,0-.085-.085-.171,0-.171-.171-.256-.427-.256h-2.9c-.341,0-.512.256-.512.6v10.5a.571.571,0,0,0,.512.6h1.109a.583.583,0,0,0,.6-.6V2.3l2.048,8.96h0c0,.085,0,.085.085.171a.516.516,0,0,0,.512.256h1.451a.608.608,0,0,0,.512-.256c0-.085.085-.085.085-.171v-.171L37.76,2.3v8.789a.571.571,0,0,0,.512.6h1.109a.583.583,0,0,0,.6-.6V.6C39.808.256,39.552,0,39.3,0Z" transform="translate(-28.8)"/></g><g transform="translate(19.222 3.776)"><path class="a" d="M23.272,13.534a.769.769,0,0,1-.427-.085.709.709,0,0,1-.171-1.024,6.2,6.2,0,0,0,0-6.827.734.734,0,0,1,1.195-.853,7.522,7.522,0,0,1,1.28,4.181,7.13,7.13,0,0,1-1.28,4.181.676.676,0,0,1-.6.427Z" transform="translate(-22.526 -4.426)"/></g><g transform="translate(17.088 4.971)"><path class="a" d="M20.772,12.545a.769.769,0,0,1-.427-.085.709.709,0,0,1-.171-1.024,4.23,4.23,0,0,0,.683-2.219A4.23,4.23,0,0,0,20.174,7a.814.814,0,0,1,.256-1.024.709.709,0,0,1,1.024.171,5.6,5.6,0,0,1,.939,2.987,5.173,5.173,0,0,1-.939,2.987.7.7,0,0,1-.683.427Z" transform="translate(-20.026 -5.826)"/></g><path class="a" d="M14.507,5.205A5.876,5.876,0,0,0,8.789,0,5.8,5.8,0,0,0,3.328,3.925,3.869,3.869,0,0,0,0,7.765a3.824,3.824,0,0,0,3.84,3.84h9.9a3.241,3.241,0,0,0,3.243-3.243A3.207,3.207,0,0,0,14.507,5.205Zm-.768,4.949H3.84a2.389,2.389,0,0,1,0-4.779,2.383,2.383,0,0,1,1.707.683.779.779,0,0,0,1.024,0,.779.779,0,0,0,0-1.024A3.8,3.8,0,0,0,4.779,4.011,4.276,4.276,0,0,1,12.971,5.8a3.865,3.865,0,0,1-.256,1.365.858.858,0,0,0,.427.939H13.4a.649.649,0,0,0,.683-.512c.085-.256.171-.6.256-.853a1.781,1.781,0,0,1,1.109,1.707A1.611,1.611,0,0,1,13.739,10.155Z" transform="translate(0 0)"/></svg>